<svg width="560" height="567" viewBox="0 0 560 567" fill="none" xmlns="http://www.w3.org/2000/svg">
<path d="M174.294 205.271L174.294 415.871L129.867 441.521L129.867 354.821L60.7585 394.721L60.7585 481.421L16.3314 507.071L16.3313 296.471L60.7584 270.821L60.7585 353.321L129.867 313.421L129.867 230.921L174.294 205.271ZM494.187 20.5812L494.187 61.6812L419.882 104.581L419.882 148.981L475.48 116.881L475.48 156.781L419.882 188.881L419.882 274.081L375.454 299.731L375.454 89.1312L494.187 20.5812Z" fill="#0076B4"/>
<path d="M345.363 106.504L345.363 147.604L297.039 175.504L297.039 345.004L252.612 370.654L252.612 201.154L204.288 229.054L204.288 187.954L345.363 106.504Z" fill="#FFF200"/>
<rect width="70.6084" height="56.982" transform="matrix(0.866025 -0.5 0.866025 0.5 424.967 155.545)" fill="#004163"/>
<path d="M16 297L72.5 330L72.5 543.5L16.5 507L16 297Z" fill="#004163"/>
<path d="M375.5 89L432 122.5L431.5 336.5L375.5 300L375.5 89Z" fill="#004163"/>
<path d="M129 358.71L187 392.35L187 478.283L129.513 443.415L129 358.71Z" fill="#004163"/>
<rect width="68.1273" height="82.8865" transform="matrix(0.866025 0.5 -2.20305e-08 1 130 231.423)" fill="#004163"/>
<path d="M16.0308 297.117L63.4999 269.711L120.5 302.5L73 330L16.0308 297.117Z" fill="#0076B4"/>
<path fill-rule="evenodd" clip-rule="evenodd" d="M59.0315 353.692L58 354.285L59.0315 354.879V353.692ZM117.015 388.219L117.209 388.33L189.011 347.045L129.802 313L117.015 320.352V388.219Z" fill="#005887"/>
<path d="M204 188L261 220L260.5 266.5L204 225V188Z" fill="#8F8800"/>
<rect width="54.8479" height="66.0678" transform="matrix(0.866025 -0.5 0.866025 0.5 128.96 231.322)" fill="#0076B4"/>
<path d="M204 188L345 107L405 139.5L262 221.5L204 188Z" fill="#E0E0E0"/>
<path d="M204 188L345 107L405 139.5L262 221.5L204 188Z" fill="#EBDE00"/>
<mask id="path-13-outside-1_106_66" maskUnits="userSpaceOnUse" x="71.8564" y="51.5" width="482.376" height="493.5" fill="black">
<rect fill="white" x="71.8564" y="51.5" width="482.376" height="493.5"/>
<path d="M232.294 239.771L232.294 450.371L187.867 476.021L187.867 389.321L118.758 429.221L118.758 515.921L74.3314 541.571L74.3313 330.971L118.758 305.321L118.758 387.821L187.867 347.921L187.867 265.421L232.294 239.771ZM552.187 55.0812L552.187 96.1812L477.882 139.081L477.882 183.481L533.48 151.381L533.48 191.281L477.882 223.381L477.882 308.581L433.454 334.231L433.454 123.631L552.187 55.0812Z"/>
<path d="M403.363 141.004L403.363 182.104L355.039 210.004L355.039 379.504L310.612 405.154L310.612 235.654L262.288 263.554L262.288 222.454L403.363 141.004Z"/>
</mask>
<path d="M232.294 239.771L232.294 450.371L187.867 476.021L187.867 389.321L118.758 429.221L118.758 515.921L74.3314 541.571L74.3313 330.971L118.758 305.321L118.758 387.821L187.867 347.921L187.867 265.421L232.294 239.771ZM552.187 55.0812L552.187 96.1812L477.882 139.081L477.882 183.481L533.48 151.381L533.48 191.281L477.882 223.381L477.882 308.581L433.454 334.231L433.454 123.631L552.187 55.0812Z" fill="#0076B4"/>
<path d="M403.363 141.004L403.363 182.104L355.039 210.004L355.039 379.504L310.612 405.154L310.612 235.654L262.288 263.554L262.288 222.454L403.363 141.004Z" fill="#FFF200"/>
<path d="M232.294 239.771L234.026 238.771L234.026 236.771L232.294 237.771L232.294 239.771ZM232.294 450.371L232.294 452.371L234.026 451.371L234.026 449.371L232.294 450.371ZM187.867 476.021L186.135 477.021L186.135 479.021L187.867 478.021L187.867 476.021ZM187.867 389.321L189.599 388.321L189.599 386.321L187.867 387.321L187.867 389.321ZM118.758 429.221L118.758 427.221L117.026 428.221L117.026 430.221L118.758 429.221ZM118.758 515.921L118.758 517.921L120.491 516.921L120.491 514.921L118.758 515.921ZM74.3314 541.571L72.5993 542.571L72.5993 544.571L74.3314 543.571L74.3314 541.571ZM74.3313 330.971L74.3313 328.971L72.5993 329.971L72.5993 331.971L74.3313 330.971ZM118.758 305.321L120.491 304.321L120.491 302.321L118.758 303.321L118.758 305.321ZM118.758 387.821L117.026 388.821L117.026 390.821L118.758 389.821L118.758 387.821ZM187.867 347.921L187.867 349.921L189.599 348.921L189.599 346.921L187.867 347.921ZM187.867 265.421L187.867 263.421L186.135 264.421L186.135 266.421L187.867 265.421ZM230.562 240.771L230.562 451.371L234.026 449.371L234.026 238.771L230.562 240.771ZM232.294 448.371L187.867 474.021L187.867 478.021L232.294 452.371L232.294 448.371ZM189.599 475.021L189.599 388.321L186.135 390.321L186.135 477.021L189.599 475.021ZM187.867 387.321L118.758 427.221L118.758 431.221L187.867 391.321L187.867 387.321ZM117.026 430.221L117.026 516.921L120.491 514.921L120.491 428.221L117.026 430.221ZM118.758 513.921L74.3314 539.571L74.3314 543.571L118.758 517.921L118.758 513.921ZM76.0634 540.571L76.0634 329.971L72.5993 331.971L72.5993 542.571L76.0634 540.571ZM74.3313 332.971L118.758 307.321L118.758 303.321L74.3313 328.971L74.3313 332.971ZM117.026 306.321L117.026 388.821L120.491 386.821L120.491 304.321L117.026 306.321ZM118.758 389.821L187.867 349.921L187.867 345.921L118.758 385.821L118.758 389.821ZM189.599 346.921L189.599 264.421L186.135 266.421L186.135 348.921L189.599 346.921ZM187.867 267.421L232.294 241.771L232.294 237.771L187.867 263.421L187.867 267.421ZM403.363 141.004L405.096 140.004L405.096 138.004L403.363 139.004L403.363 141.004ZM403.363 182.104L403.363 184.104L405.096 183.104L405.096 181.104L403.363 182.104ZM355.039 210.004L355.039 208.004L353.307 209.004L353.307 211.004L355.039 210.004ZM355.039 379.504L355.039 381.504L356.771 380.504L356.771 378.504L355.039 379.504ZM310.612 405.154L308.88 406.154L308.88 408.154L310.612 407.154L310.612 405.154ZM310.612 235.654L312.344 234.654L312.344 232.654L310.612 233.654L310.612 235.654ZM262.288 263.554L260.556 264.554L260.556 266.554L262.288 265.554L262.288 263.554ZM262.288 222.454L262.288 220.454L260.556 221.454L260.556 223.454L262.288 222.454ZM401.631 142.004L401.631 183.104L405.096 181.104L405.096 140.004L401.631 142.004ZM403.363 180.104L355.039 208.004L355.039 212.004L403.363 184.104L403.363 180.104ZM353.307 211.004L353.307 380.504L356.771 378.504L356.771 209.004L353.307 211.004ZM355.039 377.504L310.612 403.154L310.612 407.154L355.039 381.504L355.039 377.504ZM312.344 404.154L312.344 234.654L308.88 236.654L308.88 406.154L312.344 404.154ZM310.612 233.654L262.288 261.554L262.288 265.554L310.612 237.654L310.612 233.654ZM264.02 262.554L264.02 221.454L260.556 223.454L260.556 264.554L264.02 262.554ZM262.288 224.454L403.363 143.004L403.363 139.004L262.288 220.454L262.288 224.454ZM552.187 55.0812L553.919 54.0812L553.919 52.0812L552.187 53.0812L552.187 55.0812ZM552.187 96.1812L552.187 98.1812L553.919 97.1812L553.919 95.1812L552.187 96.1812ZM477.882 139.081L477.882 137.081L476.15 138.081L476.15 140.081L477.882 139.081ZM477.882 183.481L476.15 184.481L476.15 186.481L477.882 185.481L477.882 183.481ZM533.48 151.381L535.212 150.381L535.212 148.381L533.48 149.381L533.48 151.381ZM533.48 191.281L533.48 193.281L535.212 192.281L535.212 190.281L533.48 191.281ZM477.882 223.381L477.882 221.381L476.15 222.381L476.15 224.381L477.882 223.381ZM477.882 308.581L477.882 310.581L479.614 309.581L479.614 307.581L477.882 308.581ZM433.454 334.231L431.722 335.231L431.722 337.231L433.454 336.231L433.454 334.231ZM433.454 123.631L433.454 121.631L431.722 122.631L431.722 124.631L433.454 123.631ZM550.455 56.0812L550.455 97.1812L553.919 95.1812L553.919 54.0812L550.455 56.0812ZM552.187 94.1812L477.882 137.081L477.882 141.081L552.187 98.1812L552.187 94.1812ZM476.15 140.081L476.15 184.481L479.614 182.481L479.614 138.081L476.15 140.081ZM477.882 185.481L533.48 153.381L533.48 149.381L477.882 181.481L477.882 185.481ZM531.748 152.381L531.748 192.281L535.212 190.281L535.212 150.381L531.748 152.381ZM533.48 189.281L477.882 221.381L477.882 225.381L533.48 193.281L533.48 189.281ZM476.15 224.381L476.15 309.581L479.614 307.581L479.614 222.381L476.15 224.381ZM477.882 306.581L433.454 332.231L433.454 336.231L477.882 310.581L477.882 306.581ZM435.187 333.231L435.187 122.631L431.722 124.631L431.722 335.231L435.187 333.231ZM433.454 125.631L552.187 57.0812L552.187 53.0812L433.454 121.631L433.454 125.631Z" fill="black" mask="url(#path-13-outside-1_106_66)"/>
<path fill-rule="evenodd" clip-rule="evenodd" d="M262.319 267.048L262.319 267.048L252.659 260.923L252 261.21L252 379.592L309 408L309 244L262.319 267.048Z" fill="#8F8800"/>
<path d="M261 266.082L309 238.5V246.344L261.98 267L261 266.082Z" fill="#8F8800"/>
<path d="M375.5 89.0001L494 20.5001L554 52.0001L431.5 123L375.5 89.0001Z" fill="#0076B4"/>
</svg>
