<svg width="789" height="362" viewBox="0 0 789 362" fill="none" xmlns="http://www.w3.org/2000/svg">
<mask id="path-1-outside-1_108_35" maskUnits="userSpaceOnUse" x="711" y="260" width="76" height="43" fill="black">
<rect fill="white" x="711" y="260" width="76" height="43"/>
<path d="M714.872 292.424C715.96 291.56 716.456 291.16 716.36 291.224C719.496 288.632 721.96 286.504 723.752 284.84C725.576 283.176 727.112 281.432 728.36 279.608C729.608 277.784 730.232 276.008 730.232 274.28C730.232 272.968 729.928 271.944 729.32 271.208C728.712 270.472 727.8 270.104 726.584 270.104C725.368 270.104 724.408 270.568 723.704 271.496C723.032 272.392 722.696 273.672 722.696 275.336H714.776C714.84 272.616 715.416 270.344 716.504 268.52C717.624 266.696 719.08 265.352 720.872 264.488C722.696 263.624 724.712 263.192 726.92 263.192C730.728 263.192 733.592 264.168 735.512 266.12C737.464 268.072 738.44 270.616 738.44 273.752C738.44 277.176 737.272 280.36 734.936 283.304C732.6 286.216 729.624 289.064 726.008 291.848H738.968V298.52H714.872V292.424ZM747.238 299.384C745.798 299.384 744.614 298.968 743.686 298.136C742.79 297.272 742.342 296.216 742.342 294.968C742.342 293.688 742.79 292.616 743.686 291.752C744.614 290.888 745.798 290.456 747.238 290.456C748.646 290.456 749.798 290.888 750.694 291.752C751.622 292.616 752.086 293.688 752.086 294.968C752.086 296.216 751.622 297.272 750.694 298.136C749.798 298.968 748.646 299.384 747.238 299.384ZM756.129 281C756.129 275.496 757.185 271.16 759.297 267.992C761.441 264.824 764.881 263.24 769.617 263.24C774.353 263.24 777.777 264.824 779.889 267.992C782.033 271.16 783.105 275.496 783.105 281C783.105 286.568 782.033 290.936 779.889 294.104C777.777 297.272 774.353 298.856 769.617 298.856C764.881 298.856 761.441 297.272 759.297 294.104C757.185 290.936 756.129 286.568 756.129 281ZM775.041 281C775.041 277.768 774.689 275.288 773.985 273.56C773.281 271.8 771.825 270.92 769.617 270.92C767.409 270.92 765.953 271.8 765.249 273.56C764.545 275.288 764.193 277.768 764.193 281C764.193 283.176 764.321 284.984 764.577 286.424C764.833 287.832 765.345 288.984 766.113 289.88C766.913 290.744 768.081 291.176 769.617 291.176C771.153 291.176 772.305 290.744 773.073 289.88C773.873 288.984 774.401 287.832 774.657 286.424C774.913 284.984 775.041 283.176 775.041 281Z"/>
</mask>
<path d="M714.872 292.424L713.006 290.075L711.872 290.975V292.424H714.872ZM716.36 291.224L714.449 288.912L718.024 293.72L716.36 291.224ZM723.752 284.84L721.73 282.624L721.72 282.633L721.711 282.642L723.752 284.84ZM729.32 271.208L727.007 273.119L727.007 273.119L729.32 271.208ZM723.704 271.496L721.314 269.683L721.309 269.689L721.304 269.696L723.704 271.496ZM722.696 275.336V278.336H725.696V275.336H722.696ZM714.776 275.336L711.777 275.265L711.705 278.336H714.776V275.336ZM716.504 268.52L713.947 266.95L713.937 266.967L713.928 266.983L716.504 268.52ZM720.872 264.488L719.588 261.777L719.578 261.781L719.569 261.786L720.872 264.488ZM735.512 266.12L733.373 268.224L733.382 268.233L733.391 268.241L735.512 266.12ZM734.936 283.304L737.276 285.181L737.281 285.175L737.286 285.169L734.936 283.304ZM726.008 291.848L724.178 289.471L717.194 294.848H726.008V291.848ZM738.968 291.848H741.968V288.848H738.968V291.848ZM738.968 298.52V301.52H741.968V298.52H738.968ZM714.872 298.52H711.872V301.52H714.872V298.52ZM716.738 294.773C717.282 294.341 717.686 294.019 717.943 293.811C718.067 293.711 718.175 293.623 718.251 293.56C718.271 293.543 718.297 293.521 718.325 293.497C718.336 293.487 718.408 293.424 718.49 293.343C718.514 293.319 718.557 293.275 718.608 293.218C718.641 293.181 718.76 293.048 718.884 292.857C718.941 292.77 719.078 292.553 719.19 292.247C719.257 292.062 719.588 291.15 719.146 290.075C718.563 288.659 717.274 288.291 716.664 288.232C716.121 288.178 715.703 288.29 715.582 288.323C715.277 288.406 715.056 288.521 715.015 288.541C714.933 288.583 714.869 288.62 714.837 288.639C714.77 288.679 714.718 288.713 714.696 288.728L718.024 293.72C718.008 293.731 717.961 293.762 717.898 293.8C717.867 293.818 717.805 293.854 717.724 293.895C717.685 293.915 717.464 294.029 717.16 294.112C717.039 294.145 716.621 294.256 716.079 294.203C715.469 294.143 714.181 293.776 713.598 292.36C713.155 291.285 713.486 290.373 713.554 290.189C713.665 289.883 713.802 289.666 713.859 289.579C713.983 289.389 714.101 289.257 714.133 289.221C714.183 289.165 714.224 289.123 714.247 289.1C714.351 288.996 714.445 288.92 714.391 288.966C714.367 288.987 714.301 289.041 714.177 289.141C713.938 289.333 713.55 289.643 713.006 290.075L716.738 294.773ZM718.271 293.536C721.427 290.928 723.941 288.759 725.793 287.038L721.711 282.642C719.979 284.249 717.565 286.336 714.449 288.912L718.271 293.536ZM725.774 287.056C727.749 285.254 729.443 283.338 730.836 281.302L725.884 277.914C724.781 279.526 723.403 281.098 721.73 282.624L725.774 287.056ZM730.836 281.302C732.33 279.118 733.232 276.761 733.232 274.28H727.232C727.232 275.255 726.886 276.45 725.884 277.914L730.836 281.302ZM733.232 274.28C733.232 272.53 732.826 270.742 731.633 269.297L727.007 273.119C727.03 273.146 727.232 273.406 727.232 274.28H733.232ZM731.633 269.297C730.305 267.69 728.429 267.104 726.584 267.104V273.104C726.895 273.104 727.032 273.152 727.057 273.162C727.069 273.167 727.061 273.165 727.044 273.152C727.026 273.139 727.013 273.126 727.007 273.119L731.633 269.297ZM726.584 267.104C724.478 267.104 722.614 267.97 721.314 269.683L726.094 273.309C726.187 273.187 726.243 273.16 726.258 273.153C726.277 273.144 726.364 273.104 726.584 273.104V267.104ZM721.304 269.696C720.094 271.309 719.696 273.324 719.696 275.336H725.696C725.696 274.02 725.97 273.475 726.104 273.296L721.304 269.696ZM722.696 272.336H714.776V278.336H722.696V272.336ZM717.775 275.407C717.83 273.061 718.322 271.329 719.08 270.057L713.928 266.983C712.51 269.359 711.85 272.171 711.777 275.265L717.775 275.407ZM719.061 270.09C719.904 268.717 720.94 267.786 722.175 267.19L719.569 261.786C717.22 262.918 715.344 264.675 713.947 266.95L719.061 270.09ZM722.156 267.199C723.542 266.543 725.114 266.192 726.92 266.192V260.192C724.31 260.192 721.85 260.705 719.588 261.777L722.156 267.199ZM726.92 266.192C730.244 266.192 732.208 267.039 733.373 268.224L737.651 264.016C734.976 261.297 731.212 260.192 726.92 260.192V266.192ZM733.391 268.241C734.702 269.553 735.44 271.294 735.44 273.752H741.44C741.44 269.938 740.226 266.591 737.633 263.999L733.391 268.241ZM735.44 273.752C735.44 276.432 734.545 278.971 732.586 281.439L737.286 285.169C739.999 281.749 741.44 277.92 741.44 273.752H735.44ZM732.596 281.427C730.438 284.117 727.645 286.802 724.178 289.471L727.838 294.225C731.603 291.326 734.762 288.315 737.276 285.181L732.596 281.427ZM726.008 294.848H738.968V288.848H726.008V294.848ZM735.968 291.848V298.52H741.968V291.848H735.968ZM738.968 295.52H714.872V301.52H738.968V295.52ZM717.872 298.52V292.424H711.872V298.52H717.872ZM743.686 298.136L741.603 300.296L741.643 300.333L741.683 300.37L743.686 298.136ZM743.686 291.752L741.642 289.556L741.622 289.574L741.603 289.592L743.686 291.752ZM750.694 291.752L748.611 293.912L748.63 293.93L748.65 293.948L750.694 291.752ZM750.694 298.136L752.735 300.334L752.738 300.332L750.694 298.136ZM747.238 296.384C746.415 296.384 745.981 296.165 745.689 295.902L741.683 300.37C743.246 301.771 745.181 302.384 747.238 302.384V296.384ZM745.768 295.976C745.46 295.68 745.342 295.404 745.342 294.968H739.342C739.342 297.028 740.119 298.864 741.603 300.296L745.768 295.976ZM745.342 294.968C745.342 294.477 745.477 294.192 745.768 293.912L741.603 289.592C740.103 291.04 739.342 292.899 739.342 294.968H745.342ZM745.73 293.948C746.027 293.671 746.446 293.456 747.238 293.456V287.456C745.15 287.456 743.201 288.105 741.642 289.556L745.73 293.948ZM747.238 293.456C747.98 293.456 748.349 293.659 748.611 293.912L752.776 289.592C751.246 288.117 749.312 287.456 747.238 287.456V293.456ZM748.65 293.948C748.962 294.238 749.086 294.512 749.086 294.968H755.086C755.086 292.864 754.282 290.994 752.738 289.556L748.65 293.948ZM749.086 294.968C749.086 295.368 748.979 295.634 748.65 295.94L752.738 300.332C754.265 298.91 755.086 297.064 755.086 294.968H749.086ZM748.653 295.938C748.395 296.176 748.012 296.384 747.238 296.384V302.384C749.28 302.384 751.2 301.76 752.735 300.334L748.653 295.938ZM759.297 267.992L756.812 266.311L756.806 266.319L756.801 266.328L759.297 267.992ZM779.889 267.992L777.393 269.656L777.398 269.665L777.404 269.673L779.889 267.992ZM779.889 294.104L777.404 292.423L777.398 292.431L777.393 292.44L779.889 294.104ZM759.297 294.104L756.801 295.768L756.806 295.777L756.812 295.785L759.297 294.104ZM773.985 273.56L771.199 274.674L771.203 274.683L771.206 274.692L773.985 273.56ZM765.249 273.56L768.027 274.692L768.031 274.683L768.034 274.674L765.249 273.56ZM764.577 286.424L761.623 286.949L761.625 286.961L764.577 286.424ZM766.113 289.88L763.835 291.832L763.872 291.876L763.911 291.918L766.113 289.88ZM773.073 289.88L770.835 287.882L770.831 287.887L773.073 289.88ZM774.657 286.424L777.608 286.961L777.61 286.949L774.657 286.424ZM759.129 281C759.129 275.837 760.126 272.157 761.793 269.656L756.801 266.328C754.244 270.163 753.129 275.155 753.129 281H759.129ZM761.781 269.673C763.232 267.53 765.608 266.24 769.617 266.24V260.24C764.154 260.24 759.65 262.118 756.812 266.311L761.781 269.673ZM769.617 266.24C773.627 266.24 775.975 267.53 777.393 269.656L782.385 266.328C779.578 262.118 775.078 260.24 769.617 260.24V266.24ZM777.404 269.673C779.095 272.171 780.105 275.844 780.105 281H786.105C786.105 275.148 784.971 270.149 782.373 266.311L777.404 269.673ZM780.105 281C780.105 286.228 779.091 289.929 777.404 292.423L782.373 295.785C784.974 291.943 786.105 286.908 786.105 281H780.105ZM777.393 292.44C775.975 294.566 773.627 295.856 769.617 295.856V301.856C775.078 301.856 779.578 299.978 782.385 295.768L777.393 292.44ZM769.617 295.856C765.608 295.856 763.232 294.566 761.781 292.423L756.812 295.785C759.65 299.978 764.154 301.856 769.617 301.856V295.856ZM761.793 292.44C760.129 289.944 759.129 286.235 759.129 281H753.129C753.129 286.901 754.241 291.928 756.801 295.768L761.793 292.44ZM778.041 281C778.041 277.622 777.683 274.687 776.763 272.428L771.206 274.692C771.694 275.889 772.041 277.914 772.041 281H778.041ZM776.77 272.446C776.205 271.033 775.266 269.828 773.917 269.013C772.6 268.217 771.108 267.92 769.617 267.92V273.92C770.333 273.92 770.673 274.063 770.813 274.147C770.919 274.212 771.06 274.327 771.199 274.674L776.77 272.446ZM769.617 267.92C768.125 267.92 766.633 268.217 765.317 269.013C763.967 269.828 763.028 271.033 762.463 272.446L768.034 274.674C768.173 274.327 768.314 274.212 768.421 274.147C768.56 274.063 768.9 273.92 769.617 273.92V267.92ZM762.47 272.428C761.55 274.687 761.193 277.622 761.193 281H767.193C767.193 277.914 767.539 275.889 768.027 274.692L762.47 272.428ZM761.193 281C761.193 283.276 761.325 285.274 761.623 286.949L767.53 285.899C767.316 284.694 767.193 283.076 767.193 281H761.193ZM761.625 286.961C761.956 288.781 762.654 290.455 763.835 291.832L768.391 287.928C768.035 287.513 767.709 286.883 767.528 285.887L761.625 286.961ZM763.911 291.918C765.439 293.568 767.513 294.176 769.617 294.176V288.176C768.648 288.176 768.387 287.92 768.314 287.842L763.911 291.918ZM769.617 294.176C771.713 294.176 773.806 293.57 775.315 291.873L770.831 287.887C770.803 287.918 770.593 288.176 769.617 288.176V294.176ZM775.311 291.878C776.544 290.497 777.273 288.807 777.608 286.961L771.705 285.887C771.529 286.857 771.202 287.471 770.835 287.882L775.311 291.878ZM777.61 286.949C777.908 285.274 778.041 283.276 778.041 281H772.041C772.041 283.076 771.917 284.694 771.703 285.899L777.61 286.949Z" fill="#FFF200" fill-opacity="0.55" mask="url(#path-1-outside-1_108_35)"/>
<mask id="path-3-outside-2_108_35" maskUnits="userSpaceOnUse" x="461" y="96" width="138" height="80" fill="black">
<rect fill="white" x="461" y="96" width="138" height="80"/>
<path d="M518.432 102.608V115.76H500.576V170H484.16V115.76H466.304V102.608H518.432ZM558.543 170.672C552.207 170.672 546.383 169.2 541.071 166.256C535.823 163.312 531.631 159.216 528.495 153.968C525.423 148.656 523.887 142.704 523.887 136.112C523.887 129.52 525.423 123.6 528.495 118.352C531.631 113.104 535.823 109.008 541.071 106.064C546.383 103.12 552.207 101.648 558.543 101.648C564.879 101.648 570.671 103.12 575.919 106.064C581.231 109.008 585.391 113.104 588.399 118.352C591.471 123.6 593.007 129.52 593.007 136.112C593.007 142.704 591.471 148.656 588.399 153.968C585.327 159.216 581.167 163.312 575.919 166.256C570.671 169.2 564.879 170.672 558.543 170.672ZM558.543 155.696C563.919 155.696 568.207 153.904 571.407 150.32C574.671 146.736 576.303 142 576.303 136.112C576.303 130.16 574.671 125.424 571.407 121.904C568.207 118.32 563.919 116.528 558.543 116.528C553.103 116.528 548.751 118.288 545.487 121.808C542.287 125.328 540.687 130.096 540.687 136.112C540.687 142.064 542.287 146.832 545.487 150.416C548.751 153.936 553.103 155.696 558.543 155.696Z"/>
</mask>
<path d="M518.432 102.608H523.432V97.608H518.432V102.608ZM518.432 115.76V120.76H523.432V115.76H518.432ZM500.576 115.76V110.76H495.576V115.76H500.576ZM500.576 170V175H505.576V170H500.576ZM484.16 170H479.16V175H484.16V170ZM484.16 115.76H489.16V110.76H484.16V115.76ZM466.304 115.76H461.304V120.76H466.304V115.76ZM466.304 102.608V97.608H461.304V102.608H466.304ZM513.432 102.608V115.76H523.432V102.608H513.432ZM518.432 110.76H500.576V120.76H518.432V110.76ZM495.576 115.76V170H505.576V115.76H495.576ZM500.576 165H484.16V175H500.576V165ZM489.16 170V115.76H479.16V170H489.16ZM484.16 110.76H466.304V120.76H484.16V110.76ZM471.304 115.76V102.608H461.304V115.76H471.304ZM466.304 107.608H518.432V97.608H466.304V107.608ZM541.071 166.256L538.624 170.617L538.636 170.623L538.647 170.629L541.071 166.256ZM528.495 153.968L524.166 156.471L524.184 156.502L524.203 156.533L528.495 153.968ZM528.495 118.352L524.203 115.787L524.191 115.807L524.18 115.826L528.495 118.352ZM541.071 106.064L538.647 101.691L538.636 101.697L538.624 101.703L541.071 106.064ZM575.919 106.064L573.472 110.425L573.484 110.431L573.495 110.437L575.919 106.064ZM588.399 118.352L584.061 120.838L584.072 120.858L584.084 120.878L588.399 118.352ZM588.399 153.968L592.714 156.494L592.72 156.483L592.727 156.471L588.399 153.968ZM575.919 166.256L578.365 170.617L578.365 170.617L575.919 166.256ZM571.407 150.32L567.71 146.953L567.693 146.972L567.677 146.99L571.407 150.32ZM571.407 121.904L567.677 125.234L567.708 125.269L567.74 125.304L571.407 121.904ZM545.487 121.808L541.82 118.408L541.804 118.426L541.787 118.445L545.487 121.808ZM545.487 150.416L541.757 153.746L541.788 153.781L541.82 153.816L545.487 150.416ZM558.543 165.672C553.017 165.672 548.032 164.398 543.494 161.883L538.647 170.629C544.733 174.002 551.397 175.672 558.543 175.672V165.672ZM543.517 161.895C539.043 159.386 535.482 155.914 532.787 151.403L524.203 156.533C527.779 162.518 532.602 167.238 538.624 170.617L543.517 161.895ZM532.823 151.465C530.224 146.97 528.887 141.893 528.887 136.112H518.887C518.887 143.515 520.622 150.342 524.166 156.471L532.823 151.465ZM528.887 136.112C528.887 130.331 530.224 125.296 532.81 120.878L524.18 115.826C520.622 121.904 518.887 128.709 518.887 136.112H528.887ZM532.787 120.917C535.482 116.406 539.043 112.934 543.517 110.425L538.624 101.703C532.602 105.082 527.779 109.802 524.203 115.787L532.787 120.917ZM543.494 110.437C548.032 107.922 553.017 106.648 558.543 106.648V96.648C551.397 96.648 544.733 98.3176 538.647 101.691L543.494 110.437ZM558.543 106.648C564.069 106.648 569.012 107.922 573.472 110.425L578.365 101.703C572.33 98.3177 565.688 96.648 558.543 96.648V106.648ZM573.495 110.437C578.012 112.941 581.509 116.386 584.061 120.838L592.737 115.866C589.273 109.822 584.449 105.075 578.342 101.691L573.495 110.437ZM584.084 120.878C586.67 125.296 588.007 130.331 588.007 136.112H598.007C598.007 128.709 596.272 121.904 592.714 115.826L584.084 120.878ZM588.007 136.112C588.007 141.893 586.67 146.97 584.07 151.465L592.727 156.471C596.272 150.342 598.007 143.515 598.007 136.112H588.007ZM584.084 151.442C581.456 155.932 577.937 159.391 573.472 161.895L578.365 170.617C584.396 167.233 589.198 162.5 592.714 156.494L584.084 151.442ZM573.473 161.895C569.012 164.398 564.069 165.672 558.543 165.672V175.672C565.688 175.672 572.33 174.002 578.365 170.617L573.473 161.895ZM558.543 160.696C565.154 160.696 570.869 158.43 575.136 153.65L567.677 146.99C565.544 149.378 562.683 150.696 558.543 150.696V160.696ZM575.103 153.687C579.378 148.993 581.303 142.964 581.303 136.112H571.303C571.303 141.036 569.964 144.479 567.71 146.953L575.103 153.687ZM581.303 136.112C581.303 129.216 579.388 123.157 575.073 118.504L567.74 125.304C569.954 127.691 571.303 131.104 571.303 136.112H581.303ZM575.136 118.574C570.869 113.794 565.154 111.528 558.543 111.528V121.528C562.683 121.528 565.544 122.846 567.677 125.234L575.136 118.574ZM558.543 111.528C551.916 111.528 546.161 113.727 541.82 118.408L549.153 125.208C551.34 122.849 554.29 121.528 558.543 121.528V111.528ZM541.787 118.445C537.546 123.11 535.687 129.194 535.687 136.112H545.687C545.687 130.998 547.027 127.546 549.186 125.171L541.787 118.445ZM535.687 136.112C535.687 142.987 537.556 149.041 541.757 153.746L549.216 147.086C547.017 144.623 545.687 141.141 545.687 136.112H535.687ZM541.82 153.816C546.161 158.497 551.916 160.696 558.543 160.696V150.696C554.29 150.696 551.34 149.375 549.153 147.016L541.82 153.816Z" fill="#FFF200" fill-opacity="0.54" mask="url(#path-3-outside-2_108_35)"/>
<mask id="path-5-outside-3_108_35" maskUnits="userSpaceOnUse" x="11" y="59" width="437" height="114" fill="black">
<rect fill="white" x="11" y="59" width="437" height="114"/>
<path d="M105.5 63.7V169H79.85V125.65H39.95V169H14.3V63.7H39.95V104.95H79.85V63.7H105.5ZM189.567 150.4H150.267L143.967 169H117.117L155.217 63.7H184.917L223.017 169H195.867L189.567 150.4ZM182.967 130.6L169.917 92.05L157.017 130.6H182.967ZM230.262 116.2C230.262 105.8 232.513 96.55 237.013 88.45C241.513 80.25 247.763 73.9 255.763 69.4C263.863 64.8 273.013 62.5 283.213 62.5C295.713 62.5 306.413 65.8 315.313 72.4C324.213 79 330.163 88 333.163 99.4H304.963C302.863 95 299.863 91.65 295.963 89.35C292.163 87.05 287.813 85.9 282.913 85.9C275.013 85.9 268.613 88.65 263.713 94.15C258.813 99.65 256.363 107 256.363 116.2C256.363 125.4 258.813 132.75 263.713 138.25C268.613 143.75 275.013 146.5 282.913 146.5C287.813 146.5 292.163 145.35 295.963 143.05C299.863 140.75 302.863 137.4 304.963 133H333.163C330.163 144.4 324.213 153.4 315.313 160C306.413 166.5 295.713 169.75 283.213 169.75C273.013 169.75 263.863 167.5 255.763 163C247.763 158.4 241.513 152.05 237.013 143.95C232.513 135.85 230.262 126.6 230.262 116.2ZM409.92 169L374.52 122.5V169H348.87V63.7H374.52V109.9L409.62 63.7H439.77L398.97 115.3L441.27 169H409.92Z"/>
</mask>
<path d="M105.5 63.7H108.5V60.7H105.5V63.7ZM105.5 169V172H108.5V169H105.5ZM79.85 169H76.85V172H79.85V169ZM79.85 125.65H82.85V122.65H79.85V125.65ZM39.95 125.65V122.65H36.95V125.65H39.95ZM39.95 169V172H42.95V169H39.95ZM14.3 169H11.3V172H14.3V169ZM14.3 63.7V60.7H11.3V63.7H14.3ZM39.95 63.7H42.95V60.7H39.95V63.7ZM39.95 104.95H36.95V107.95H39.95V104.95ZM79.85 104.95V107.95H82.85V104.95H79.85ZM79.85 63.7V60.7H76.85V63.7H79.85ZM102.5 63.7V169H108.5V63.7H102.5ZM105.5 166H79.85V172H105.5V166ZM82.85 169V125.65H76.85V169H82.85ZM79.85 122.65H39.95V128.65H79.85V122.65ZM36.95 125.65V169H42.95V125.65H36.95ZM39.95 166H14.3V172H39.95V166ZM17.3 169V63.7H11.3V169H17.3ZM14.3 66.7H39.95V60.7H14.3V66.7ZM36.95 63.7V104.95H42.95V63.7H36.95ZM39.95 107.95H79.85V101.95H39.95V107.95ZM82.85 104.95V63.7H76.85V104.95H82.85ZM79.85 66.7H105.5V60.7H79.85V66.7ZM189.567 150.4L192.408 149.438L191.718 147.4H189.567V150.4ZM150.267 150.4V147.4H148.116L147.425 149.438L150.267 150.4ZM143.967 169V172H146.118L146.808 169.962L143.967 169ZM117.117 169L114.296 167.979L112.841 172H117.117V169ZM155.217 63.7V60.7H153.112L152.396 62.6793L155.217 63.7ZM184.917 63.7L187.738 62.6793L187.022 60.7H184.917V63.7ZM223.017 169V172H227.293L225.838 167.979L223.017 169ZM195.867 169L193.025 169.962L193.716 172H195.867V169ZM182.967 130.6V133.6H187.15L185.808 129.638L182.967 130.6ZM169.917 92.05L172.758 91.0881L169.9 82.6454L167.072 91.098L169.917 92.05ZM157.017 130.6L154.172 129.648L152.849 133.6H157.017V130.6ZM189.567 147.4H150.267V153.4H189.567V147.4ZM147.425 149.438L141.125 168.038L146.808 169.962L153.108 151.362L147.425 149.438ZM143.967 166H117.117V172H143.967V166ZM119.938 170.021L158.038 64.7207L152.396 62.6793L114.296 167.979L119.938 170.021ZM155.217 66.7H184.917V60.7H155.217V66.7ZM182.096 64.7207L220.196 170.021L225.838 167.979L187.738 62.6793L182.096 64.7207ZM223.017 166H195.867V172H223.017V166ZM198.708 168.038L192.408 149.438L186.725 151.362L193.025 169.962L198.708 168.038ZM185.808 129.638L172.758 91.0881L167.075 93.0119L180.125 131.562L185.808 129.638ZM167.072 91.098L154.172 129.648L159.862 131.552L172.762 93.002L167.072 91.098ZM157.017 133.6H182.967V127.6H157.017V133.6ZM237.013 88.45L239.635 89.9069L239.639 89.9001L239.643 89.8933L237.013 88.45ZM255.763 69.4L257.233 72.0147L257.244 72.0087L255.763 69.4ZM315.313 72.4L317.099 69.9903L317.099 69.9903L315.313 72.4ZM333.163 99.4V102.4H337.054L336.064 98.6365L333.163 99.4ZM304.963 99.4L302.255 100.692L303.07 102.4H304.963V99.4ZM295.963 89.35L294.409 91.9165L294.424 91.9254L294.439 91.9341L295.963 89.35ZM263.713 94.15L265.952 96.1456L265.952 96.1456L263.713 94.15ZM295.963 143.05L294.439 140.466L294.424 140.475L294.409 140.483L295.963 143.05ZM304.963 133V130H303.07L302.255 131.708L304.963 133ZM333.163 133L336.064 133.763L337.054 130H333.163V133ZM315.313 160L317.082 162.423L317.091 162.416L317.099 162.41L315.313 160ZM255.763 163L254.267 165.601L254.286 165.612L254.306 165.622L255.763 163ZM237.013 143.95L239.635 142.493L239.635 142.493L237.013 143.95ZM233.262 116.2C233.262 106.246 235.412 97.5088 239.635 89.9069L234.39 86.9931C229.613 95.5911 227.262 105.354 227.262 116.2H233.262ZM239.643 89.8933C243.878 82.1745 249.731 76.2346 257.233 72.0147L254.292 66.7853C245.794 71.5653 239.147 78.3255 234.382 87.0067L239.643 89.8933ZM257.244 72.0087C264.85 67.6891 273.481 65.5 283.213 65.5V59.5C272.544 59.5 262.875 61.9109 254.281 66.7913L257.244 72.0087ZM283.213 65.5C295.155 65.5 305.208 68.6414 313.526 74.8097L317.099 69.9903C307.617 62.9585 296.27 59.5 283.213 59.5V65.5ZM313.526 74.8097C321.841 80.9765 327.423 89.3776 330.261 100.163L336.064 98.6365C332.902 86.6223 326.584 77.0235 317.099 69.9903L313.526 74.8097ZM333.163 96.4H304.963V102.4H333.163V96.4ZM307.67 98.1078C305.334 93.2124 301.941 89.3927 297.486 86.7659L294.439 91.9341C297.784 93.9073 300.392 96.7876 302.255 100.692L307.67 98.1078ZM297.516 86.7835C293.2 84.1712 288.302 82.9 282.913 82.9V88.9C287.323 88.9 291.125 89.9288 294.409 91.9165L297.516 86.7835ZM282.913 82.9C274.227 82.9 266.987 85.965 261.473 92.1544L265.952 96.1456C270.238 91.335 275.798 88.9 282.913 88.9V82.9ZM261.473 92.1544C255.97 98.331 253.363 106.454 253.363 116.2H259.363C259.363 107.546 261.655 100.969 265.952 96.1456L261.473 92.1544ZM253.363 116.2C253.363 125.946 255.97 134.069 261.473 140.246L265.952 136.254C261.655 131.431 259.363 124.854 259.363 116.2H253.363ZM261.473 140.246C266.987 146.435 274.227 149.5 282.913 149.5V143.5C275.798 143.5 270.238 141.065 265.952 136.254L261.473 140.246ZM282.913 149.5C288.302 149.5 293.2 148.229 297.516 145.616L294.409 140.483C291.125 142.471 287.323 143.5 282.913 143.5V149.5ZM297.486 145.634C301.941 143.007 305.334 139.188 307.67 134.292L302.255 131.708C300.392 135.612 297.784 138.493 294.439 140.466L297.486 145.634ZM304.963 136H333.163V130H304.963V136ZM330.261 132.237C327.423 143.022 321.841 151.423 313.526 157.59L317.099 162.41C326.584 155.377 332.902 145.778 336.064 133.763L330.261 132.237ZM313.543 157.577C305.224 163.653 295.165 166.75 283.213 166.75V172.75C296.26 172.75 307.601 169.347 317.082 162.423L313.543 157.577ZM283.213 166.75C273.47 166.75 264.83 164.606 257.219 160.378L254.306 165.622C262.895 170.394 272.555 172.75 283.213 172.75V166.75ZM257.258 160.399C249.733 156.072 243.871 150.119 239.635 142.493L234.39 145.407C239.154 153.981 245.792 160.728 254.267 165.601L257.258 160.399ZM239.635 142.493C235.412 134.891 233.262 126.154 233.262 116.2H227.262C227.262 127.046 229.613 136.809 234.39 145.407L239.635 142.493ZM409.92 169L407.533 170.817L408.434 172H409.92V169ZM374.52 122.5L376.907 120.683L371.52 113.607V122.5H374.52ZM374.52 169V172H377.52V169H374.52ZM348.87 169H345.87V172H348.87V169ZM348.87 63.7V60.7H345.87V63.7H348.87ZM374.52 63.7H377.52V60.7H374.52V63.7ZM374.52 109.9H371.52V118.808L376.909 111.715L374.52 109.9ZM409.62 63.7V60.7H408.132L407.232 61.8851L409.62 63.7ZM439.77 63.7L442.124 65.5607L445.967 60.7H439.77V63.7ZM398.97 115.3L396.617 113.439L395.149 115.296L396.614 117.156L398.97 115.3ZM441.27 169V172H447.452L443.627 167.144L441.27 169ZM412.307 167.183L376.907 120.683L372.133 124.317L407.533 170.817L412.307 167.183ZM371.52 122.5V169H377.52V122.5H371.52ZM374.52 166H348.87V172H374.52V166ZM351.87 169V63.7H345.87V169H351.87ZM348.87 66.7H374.52V60.7H348.87V66.7ZM371.52 63.7V109.9H377.52V63.7H371.52ZM376.909 111.715L412.009 65.5149L407.232 61.8851L372.132 108.085L376.909 111.715ZM409.62 66.7H439.77V60.7H409.62V66.7ZM437.417 61.8393L396.617 113.439L401.324 117.161L442.124 65.5607L437.417 61.8393ZM396.614 117.156L438.914 170.856L443.627 167.144L401.327 113.444L396.614 117.156ZM441.27 166H409.92V172H441.27V166Z" fill="#0076B4" mask="url(#path-5-outside-3_108_35)"/>
<mask id="path-7-outside-4_108_35" maskUnits="userSpaceOnUse" x="142" y="193" width="551" height="114" fill="black">
<rect fill="white" x="142" y="193" width="551" height="114"/>
<path d="M213.85 196.7V217.25H170.95V239.45H203.05V259.4H170.95V302H145.3V196.7H213.85ZM252.531 196.7V259.7C252.531 266 254.081 270.85 257.181 274.25C260.281 277.65 264.831 279.35 270.831 279.35C276.831 279.35 281.431 277.65 284.631 274.25C287.831 270.85 289.431 266 289.431 259.7V196.7H315.081V259.55C315.081 268.95 313.081 276.9 309.081 283.4C305.081 289.9 299.681 294.8 292.881 298.1C286.181 301.4 278.681 303.05 270.381 303.05C262.081 303.05 254.631 301.45 248.031 298.25C241.531 294.95 236.381 290.05 232.581 283.55C228.781 276.95 226.881 268.95 226.881 259.55V196.7H252.531ZM408.843 196.7V217.25H380.943V302H355.293V217.25H327.393V196.7H408.843ZM446.916 196.7V259.7C446.916 266 448.466 270.85 451.566 274.25C454.666 277.65 459.216 279.35 465.216 279.35C471.216 279.35 475.816 277.65 479.016 274.25C482.216 270.85 483.816 266 483.816 259.7V196.7H509.466V259.55C509.466 268.95 507.466 276.9 503.466 283.4C499.466 289.9 494.066 294.8 487.266 298.1C480.566 301.4 473.066 303.05 464.766 303.05C456.466 303.05 449.016 301.45 442.416 298.25C435.916 294.95 430.766 290.05 426.966 283.55C423.166 276.95 421.266 268.95 421.266 259.55V196.7H446.916ZM581.178 302L559.278 262.25H553.128V302H527.478V196.7H570.528C578.828 196.7 585.878 198.15 591.678 201.05C597.578 203.95 601.978 207.95 604.878 213.05C607.778 218.05 609.228 223.65 609.228 229.85C609.228 236.85 607.228 243.1 603.228 248.6C599.328 254.1 593.528 258 585.828 260.3L610.128 302H581.178ZM553.128 244.1H569.028C573.728 244.1 577.228 242.95 579.528 240.65C581.928 238.35 583.128 235.1 583.128 230.9C583.128 226.9 581.928 223.75 579.528 221.45C577.228 219.15 573.728 218 569.028 218H553.128V244.1ZM650.979 217.25V238.55H685.329V258.35H650.979V281.45H689.829V302H625.329V196.7H689.829V217.25H650.979Z"/>
</mask>
<path d="M213.85 196.7H216.85V193.7H213.85V196.7ZM213.85 217.25V220.25H216.85V217.25H213.85ZM170.95 217.25V214.25H167.95V217.25H170.95ZM170.95 239.45H167.95V242.45H170.95V239.45ZM203.05 239.45H206.05V236.45H203.05V239.45ZM203.05 259.4V262.4H206.05V259.4H203.05ZM170.95 259.4V256.4H167.95V259.4H170.95ZM170.95 302V305H173.95V302H170.95ZM145.3 302H142.3V305H145.3V302ZM145.3 196.7V193.7H142.3V196.7H145.3ZM210.85 196.7V217.25H216.85V196.7H210.85ZM213.85 214.25H170.95V220.25H213.85V214.25ZM167.95 217.25V239.45H173.95V217.25H167.95ZM170.95 242.45H203.05V236.45H170.95V242.45ZM200.05 239.45V259.4H206.05V239.45H200.05ZM203.05 256.4H170.95V262.4H203.05V256.4ZM167.95 259.4V302H173.95V259.4H167.95ZM170.95 299H145.3V305H170.95V299ZM148.3 302V196.7H142.3V302H148.3ZM145.3 199.7H213.85V193.7H145.3V199.7ZM252.531 196.7H255.531V193.7H252.531V196.7ZM257.181 274.25L254.964 276.271L254.964 276.271L257.181 274.25ZM284.631 274.25L286.816 276.306L286.816 276.306L284.631 274.25ZM289.431 196.7V193.7H286.431V196.7H289.431ZM315.081 196.7H318.081V193.7H315.081V196.7ZM309.081 283.4L311.636 284.972L311.636 284.972L309.081 283.4ZM292.881 298.1L291.571 295.401L291.564 295.405L291.556 295.409L292.881 298.1ZM248.031 298.25L246.673 300.925L246.698 300.937L246.722 300.949L248.031 298.25ZM232.581 283.55L229.981 285.047L229.986 285.056L229.991 285.064L232.581 283.55ZM226.881 196.7V193.7H223.881V196.7H226.881ZM249.531 196.7V259.7H255.531V196.7H249.531ZM249.531 259.7C249.531 266.469 251.2 272.142 254.964 276.271L259.398 272.229C256.963 269.558 255.531 265.531 255.531 259.7H249.531ZM254.964 276.271C258.793 280.47 264.259 282.35 270.831 282.35V276.35C265.404 276.35 261.77 274.83 259.398 272.229L254.964 276.271ZM270.831 282.35C277.409 282.35 282.898 280.469 286.816 276.306L282.447 272.194C279.964 274.831 276.253 276.35 270.831 276.35V282.35ZM286.816 276.306C290.7 272.179 292.431 266.492 292.431 259.7H286.431C286.431 265.508 284.962 269.521 282.447 272.194L286.816 276.306ZM292.431 259.7V196.7H286.431V259.7H292.431ZM289.431 199.7H315.081V193.7H289.431V199.7ZM312.081 196.7V259.55H318.081V196.7H312.081ZM312.081 259.55C312.081 268.523 310.175 275.899 306.526 281.828L311.636 284.972C315.988 277.901 318.081 269.377 318.081 259.55H312.081ZM306.526 281.828C302.823 287.846 297.852 292.353 291.571 295.401L294.191 300.799C301.51 297.247 307.34 291.954 311.636 284.972L306.526 281.828ZM291.556 295.409C285.312 298.484 278.273 300.05 270.381 300.05V306.05C279.089 306.05 287.05 304.316 294.207 300.791L291.556 295.409ZM270.381 300.05C262.475 300.05 255.481 298.528 249.34 295.551L246.722 300.949C253.781 304.372 261.688 306.05 270.381 306.05V300.05ZM249.389 295.575C243.42 292.545 238.691 288.056 235.171 282.036L229.991 285.064C234.072 292.044 239.642 297.355 246.673 300.925L249.389 295.575ZM235.181 282.053C231.698 276.004 229.881 268.547 229.881 259.55H223.881C223.881 269.353 225.864 277.896 229.981 285.047L235.181 282.053ZM229.881 259.55V196.7H223.881V259.55H229.881ZM226.881 199.7H252.531V193.7H226.881V199.7ZM408.843 196.7H411.843V193.7H408.843V196.7ZM408.843 217.25V220.25H411.843V217.25H408.843ZM380.943 217.25V214.25H377.943V217.25H380.943ZM380.943 302V305H383.943V302H380.943ZM355.293 302H352.293V305H355.293V302ZM355.293 217.25H358.293V214.25H355.293V217.25ZM327.393 217.25H324.393V220.25H327.393V217.25ZM327.393 196.7V193.7H324.393V196.7H327.393ZM405.843 196.7V217.25H411.843V196.7H405.843ZM408.843 214.25H380.943V220.25H408.843V214.25ZM377.943 217.25V302H383.943V217.25H377.943ZM380.943 299H355.293V305H380.943V299ZM358.293 302V217.25H352.293V302H358.293ZM355.293 214.25H327.393V220.25H355.293V214.25ZM330.393 217.25V196.7H324.393V217.25H330.393ZM327.393 199.7H408.843V193.7H327.393V199.7ZM446.916 196.7H449.916V193.7H446.916V196.7ZM451.566 274.25L449.349 276.271L449.349 276.271L451.566 274.25ZM479.016 274.25L481.201 276.306L481.201 276.306L479.016 274.25ZM483.816 196.7V193.7H480.816V196.7H483.816ZM509.466 196.7H512.466V193.7H509.466V196.7ZM503.466 283.4L506.021 284.972L506.021 284.972L503.466 283.4ZM487.266 298.1L485.956 295.401L485.948 295.405L485.94 295.409L487.266 298.1ZM442.416 298.25L441.058 300.925L441.082 300.937L441.107 300.949L442.416 298.25ZM426.966 283.55L424.366 285.047L424.371 285.056L424.376 285.064L426.966 283.55ZM421.266 196.7V193.7H418.266V196.7H421.266ZM443.916 196.7V259.7H449.916V196.7H443.916ZM443.916 259.7C443.916 266.469 445.585 272.142 449.349 276.271L453.783 272.229C451.347 269.558 449.916 265.531 449.916 259.7H443.916ZM449.349 276.271C453.178 280.47 458.643 282.35 465.216 282.35V276.35C459.789 276.35 456.154 274.83 453.783 272.229L449.349 276.271ZM465.216 282.35C471.794 282.35 477.283 280.469 481.201 276.306L476.831 272.194C474.349 274.831 470.638 276.35 465.216 276.35V282.35ZM481.201 276.306C485.085 272.179 486.816 266.492 486.816 259.7H480.816C480.816 265.508 479.347 269.521 476.831 272.194L481.201 276.306ZM486.816 259.7V196.7H480.816V259.7H486.816ZM483.816 199.7H509.466V193.7H483.816V199.7ZM506.466 196.7V259.55H512.466V196.7H506.466ZM506.466 259.55C506.466 268.523 504.559 275.899 500.911 281.828L506.021 284.972C510.373 277.901 512.466 269.377 512.466 259.55H506.466ZM500.911 281.828C497.207 287.846 492.237 292.353 485.956 295.401L488.576 300.799C495.895 297.247 501.725 291.954 506.021 284.972L500.911 281.828ZM485.94 295.409C479.697 298.484 472.658 300.05 464.766 300.05V306.05C473.474 306.05 481.435 304.316 488.592 300.791L485.94 295.409ZM464.766 300.05C456.859 300.05 449.866 298.528 443.725 295.551L441.107 300.949C448.166 304.372 456.073 306.05 464.766 306.05V300.05ZM443.774 295.575C437.805 292.545 433.075 288.056 429.556 282.036L424.376 285.064C428.457 292.044 434.027 297.355 441.058 300.925L443.774 295.575ZM429.566 282.053C426.083 276.004 424.266 268.547 424.266 259.55H418.266C418.266 269.353 420.249 277.896 424.366 285.047L429.566 282.053ZM424.266 259.55V196.7H418.266V259.55H424.266ZM421.266 199.7H446.916V193.7H421.266V199.7ZM581.178 302L578.55 303.448L579.405 305H581.178V302ZM559.278 262.25L561.905 260.802L561.05 259.25H559.278V262.25ZM553.128 262.25V259.25H550.128V262.25H553.128ZM553.128 302V305H556.128V302H553.128ZM527.478 302H524.478V305H527.478V302ZM527.478 196.7V193.7H524.478V196.7H527.478ZM591.678 201.05L590.336 203.733L590.345 203.738L590.354 203.742L591.678 201.05ZM604.878 213.05L602.27 214.533L602.276 214.544L602.283 214.555L604.878 213.05ZM603.228 248.6L600.802 246.835L600.791 246.85L600.781 246.865L603.228 248.6ZM585.828 260.3L584.969 257.425L581.316 258.517L583.236 261.81L585.828 260.3ZM610.128 302V305H615.348L612.72 300.49L610.128 302ZM553.128 244.1H550.128V247.1H553.128V244.1ZM579.528 240.65L577.452 238.484L577.429 238.506L577.406 238.529L579.528 240.65ZM579.528 221.45L577.406 223.571L577.429 223.594L577.452 223.616L579.528 221.45ZM553.128 218V215H550.128V218H553.128ZM583.805 300.552L561.905 260.802L556.65 263.698L578.55 303.448L583.805 300.552ZM559.278 259.25H553.128V265.25H559.278V259.25ZM550.128 262.25V302H556.128V262.25H550.128ZM553.128 299H527.478V305H553.128V299ZM530.478 302V196.7H524.478V302H530.478ZM527.478 199.7H570.528V193.7H527.478V199.7ZM570.528 199.7C578.488 199.7 585.053 201.092 590.336 203.733L593.019 198.367C586.703 195.208 579.167 193.7 570.528 193.7V199.7ZM590.354 203.742C595.782 206.41 599.702 210.017 602.27 214.533L607.486 211.567C604.253 205.882 599.373 201.49 593.001 198.358L590.354 203.742ZM602.283 214.555C604.898 219.065 606.228 224.139 606.228 229.85H612.228C612.228 223.161 610.657 217.035 607.473 211.545L602.283 214.555ZM606.228 229.85C606.228 236.236 604.417 241.864 600.802 246.835L605.654 250.365C610.038 244.336 612.228 237.464 612.228 229.85H606.228ZM600.781 246.865C597.339 251.719 592.155 255.279 584.969 257.425L586.686 263.175C594.901 260.721 601.317 256.481 605.675 250.335L600.781 246.865ZM583.236 261.81L607.536 303.51L612.72 300.49L588.42 258.79L583.236 261.81ZM610.128 299H581.178V305H610.128V299ZM553.128 247.1H569.028V241.1H553.128V247.1ZM569.028 247.1C574.168 247.1 578.577 245.843 581.649 242.771L577.406 238.529C575.878 240.057 573.287 241.1 569.028 241.1V247.1ZM581.603 242.816C584.741 239.81 586.128 235.689 586.128 230.9H580.128C580.128 234.511 579.115 236.89 577.452 238.484L581.603 242.816ZM586.128 230.9C586.128 226.261 584.712 222.263 581.603 219.284L577.452 223.616C579.144 225.237 580.128 227.539 580.128 230.9H586.128ZM581.649 219.329C578.577 216.257 574.168 215 569.028 215V221C573.287 221 575.878 222.043 577.406 223.571L581.649 219.329ZM569.028 215H553.128V221H569.028V215ZM550.128 218V244.1H556.128V218H550.128ZM650.979 217.25V214.25H647.979V217.25H650.979ZM650.979 238.55H647.979V241.55H650.979V238.55ZM685.329 238.55H688.329V235.55H685.329V238.55ZM685.329 258.35V261.35H688.329V258.35H685.329ZM650.979 258.35V255.35H647.979V258.35H650.979ZM650.979 281.45H647.979V284.45H650.979V281.45ZM689.829 281.45H692.829V278.45H689.829V281.45ZM689.829 302V305H692.829V302H689.829ZM625.329 302H622.329V305H625.329V302ZM625.329 196.7V193.7H622.329V196.7H625.329ZM689.829 196.7H692.829V193.7H689.829V196.7ZM689.829 217.25V220.25H692.829V217.25H689.829ZM647.979 217.25V238.55H653.979V217.25H647.979ZM650.979 241.55H685.329V235.55H650.979V241.55ZM682.329 238.55V258.35H688.329V238.55H682.329ZM685.329 255.35H650.979V261.35H685.329V255.35ZM647.979 258.35V281.45H653.979V258.35H647.979ZM650.979 284.45H689.829V278.45H650.979V284.45ZM686.829 281.45V302H692.829V281.45H686.829ZM689.829 299H625.329V305H689.829V299ZM628.329 302V196.7H622.329V302H628.329ZM625.329 199.7H689.829V193.7H625.329V199.7ZM686.829 196.7V217.25H692.829V196.7H686.829ZM689.829 214.25H650.979V220.25H689.829V214.25Z" fill="#0076B4" mask="url(#path-7-outside-4_108_35)"/>
<path d="M717.872 289.424C718.96 288.56 719.456 288.16 719.36 288.224C722.496 285.632 724.96 283.504 726.752 281.84C728.576 280.176 730.112 278.432 731.36 276.608C732.608 274.784 733.232 273.008 733.232 271.28C733.232 269.968 732.928 268.944 732.32 268.208C731.712 267.472 730.8 267.104 729.584 267.104C728.368 267.104 727.408 267.568 726.704 268.496C726.032 269.392 725.696 270.672 725.696 272.336H717.776C717.84 269.616 718.416 267.344 719.504 265.52C720.624 263.696 722.08 262.352 723.872 261.488C725.696 260.624 727.712 260.192 729.92 260.192C733.728 260.192 736.592 261.168 738.512 263.12C740.464 265.072 741.44 267.616 741.44 270.752C741.44 274.176 740.272 277.36 737.936 280.304C735.6 283.216 732.624 286.064 729.008 288.848H741.968V295.52H717.872V289.424ZM750.238 296.384C748.798 296.384 747.614 295.968 746.686 295.136C745.79 294.272 745.342 293.216 745.342 291.968C745.342 290.688 745.79 289.616 746.686 288.752C747.614 287.888 748.798 287.456 750.238 287.456C751.646 287.456 752.798 287.888 753.694 288.752C754.622 289.616 755.086 290.688 755.086 291.968C755.086 293.216 754.622 294.272 753.694 295.136C752.798 295.968 751.646 296.384 750.238 296.384ZM759.129 278C759.129 272.496 760.185 268.16 762.297 264.992C764.441 261.824 767.881 260.24 772.617 260.24C777.353 260.24 780.777 261.824 782.889 264.992C785.033 268.16 786.105 272.496 786.105 278C786.105 283.568 785.033 287.936 782.889 291.104C780.777 294.272 777.353 295.856 772.617 295.856C767.881 295.856 764.441 294.272 762.297 291.104C760.185 287.936 759.129 283.568 759.129 278ZM778.041 278C778.041 274.768 777.689 272.288 776.985 270.56C776.281 268.8 774.825 267.92 772.617 267.92C770.409 267.92 768.953 268.8 768.249 270.56C767.545 272.288 767.193 274.768 767.193 278C767.193 280.176 767.321 281.984 767.577 283.424C767.833 284.832 768.345 285.984 769.113 286.88C769.913 287.744 771.081 288.176 772.617 288.176C774.153 288.176 775.305 287.744 776.073 286.88C776.873 285.984 777.401 284.832 777.657 283.424C777.913 281.984 778.041 280.176 778.041 278Z" fill="#D6CE41"/>
<path d="M523.432 97.608V110.76H505.576V165H489.16V110.76H471.304V97.608H523.432ZM563.543 165.672C557.207 165.672 551.383 164.2 546.071 161.256C540.823 158.312 536.631 154.216 533.495 148.968C530.423 143.656 528.887 137.704 528.887 131.112C528.887 124.52 530.423 118.6 533.495 113.352C536.631 108.104 540.823 104.008 546.071 101.064C551.383 98.12 557.207 96.648 563.543 96.648C569.879 96.648 575.671 98.12 580.919 101.064C586.231 104.008 590.391 108.104 593.399 113.352C596.471 118.6 598.007 124.52 598.007 131.112C598.007 137.704 596.471 143.656 593.399 148.968C590.327 154.216 586.167 158.312 580.919 161.256C575.671 164.2 569.879 165.672 563.543 165.672ZM563.543 150.696C568.919 150.696 573.207 148.904 576.407 145.32C579.671 141.736 581.303 137 581.303 131.112C581.303 125.16 579.671 120.424 576.407 116.904C573.207 113.32 568.919 111.528 563.543 111.528C558.103 111.528 553.751 113.288 550.487 116.808C547.287 120.328 545.687 125.096 545.687 131.112C545.687 137.064 547.287 141.832 550.487 145.416C553.751 148.936 558.103 150.696 563.543 150.696Z" fill="#D6CE41"/>
<path d="M110.5 59.7V165H84.85V121.65H44.95V165H19.3V59.7H44.95V100.95H84.85V59.7H110.5ZM194.567 146.4H155.267L148.967 165H122.117L160.217 59.7H189.917L228.017 165H200.867L194.567 146.4ZM187.967 126.6L174.917 88.05L162.017 126.6H187.967ZM235.262 112.2C235.262 101.8 237.513 92.55 242.013 84.45C246.513 76.25 252.763 69.9 260.763 65.4C268.863 60.8 278.013 58.5 288.213 58.5C300.713 58.5 311.413 61.8 320.313 68.4C329.213 75 335.163 84 338.163 95.4H309.963C307.863 91 304.863 87.65 300.963 85.35C297.163 83.05 292.813 81.9 287.913 81.9C280.013 81.9 273.613 84.65 268.713 90.15C263.813 95.65 261.363 103 261.363 112.2C261.363 121.4 263.813 128.75 268.713 134.25C273.613 139.75 280.013 142.5 287.913 142.5C292.813 142.5 297.163 141.35 300.963 139.05C304.863 136.75 307.863 133.4 309.963 129H338.163C335.163 140.4 329.213 149.4 320.313 156C311.413 162.5 300.713 165.75 288.213 165.75C278.013 165.75 268.863 163.5 260.763 159C252.763 154.4 246.513 148.05 242.013 139.95C237.513 131.85 235.262 122.6 235.262 112.2ZM414.92 165L379.52 118.5V165H353.87V59.7H379.52V105.9L414.62 59.7H444.77L403.97 111.3L446.27 165H414.92Z" fill="#008ED8"/>
<path d="M219.85 190.7V211.25H176.95V233.45H209.05V253.4H176.95V296H151.3V190.7H219.85ZM258.531 190.7V253.7C258.531 260 260.081 264.85 263.181 268.25C266.281 271.65 270.831 273.35 276.831 273.35C282.831 273.35 287.431 271.65 290.631 268.25C293.831 264.85 295.431 260 295.431 253.7V190.7H321.081V253.55C321.081 262.95 319.081 270.9 315.081 277.4C311.081 283.9 305.681 288.8 298.881 292.1C292.181 295.4 284.681 297.05 276.381 297.05C268.081 297.05 260.631 295.45 254.031 292.25C247.531 288.95 242.381 284.05 238.581 277.55C234.781 270.95 232.881 262.95 232.881 253.55V190.7H258.531ZM414.843 190.7V211.25H386.943V296H361.293V211.25H333.393V190.7H414.843ZM452.916 190.7V253.7C452.916 260 454.466 264.85 457.566 268.25C460.666 271.65 465.216 273.35 471.216 273.35C477.216 273.35 481.816 271.65 485.016 268.25C488.216 264.85 489.816 260 489.816 253.7V190.7H515.466V253.55C515.466 262.95 513.466 270.9 509.466 277.4C505.466 283.9 500.066 288.8 493.266 292.1C486.566 295.4 479.066 297.05 470.766 297.05C462.466 297.05 455.016 295.45 448.416 292.25C441.916 288.95 436.766 284.05 432.966 277.55C429.166 270.95 427.266 262.95 427.266 253.55V190.7H452.916ZM587.178 296L565.278 256.25H559.128V296H533.478V190.7H576.528C584.828 190.7 591.878 192.15 597.678 195.05C603.578 197.95 607.978 201.95 610.878 207.05C613.778 212.05 615.228 217.65 615.228 223.85C615.228 230.85 613.228 237.1 609.228 242.6C605.328 248.1 599.528 252 591.828 254.3L616.128 296H587.178ZM559.128 238.1H575.028C579.728 238.1 583.228 236.95 585.528 234.65C587.928 232.35 589.128 229.1 589.128 224.9C589.128 220.9 587.928 217.75 585.528 215.45C583.228 213.15 579.728 212 575.028 212H559.128V238.1ZM656.979 211.25V232.55H691.329V252.35H656.979V275.45H695.829V296H631.329V190.7H695.829V211.25H656.979Z" fill="#0097E4"/>
<line x1="32" y1="314" x2="730" y2="314" stroke="#FFF200" stroke-opacity="0.7" stroke-width="2"/>
<line y1="177" x2="464" y2="177" stroke="#FFF200" stroke-opacity="0.7" stroke-width="2"/>
<line x1="6" y1="198" x2="6.00001" y2="76" stroke="#FFF200" stroke-opacity="0.7" stroke-width="2"/>
<line x1="703" y1="356.105" x2="703" y2="184" stroke="#FFF200" stroke-opacity="0.7" stroke-width="2"/>
</svg>
